<?xml version="1.0" encoding="UTF-8"?>
<svg xmlns="http://www.w3.org/2000/svg" xmlns:xlink="http://www.w3.org/1999/xlink" width="340pt" height="187pt" viewBox="0 0 340 187" version="1.1">
<g id="surface1">
<path style=" stroke:none;fill-rule:nonzero;fill:rgb(80%,23.137255%,23.921569%);fill-opacity:1;" d="M 156.566406 164.585938 L 129.589844 164.585938 C 129.589844 159.0625 129.550781 153.726562 129.589844 148.398438 C 129.730469 131.050781 130.039062 113.707031 130.011719 96.363281 C 130.011719 87.367188 129.855469 78.3125 128.953125 69.394531 C 127.816406 58.128906 122.800781 48.636719 116.769531 40.050781 C 112.574219 34.070312 107.800781 28.652344 103.285156 22.980469 C 102.042969 21.417969 100.734375 21.132812 98.90625 21.824219 C 79.691406 29.046875 62.351562 39.984375 48.058594 56.957031 C 42.191406 63.925781 37.289062 71.71875 35.027344 81.292969 C 31.992188 94.136719 34.125 106.179688 40.078125 117.339844 C 47.164062 130.574219 57.480469 139.554688 68.910156 147.003906 C 87.394531 159.082031 107.289062 166.347656 128.109375 170.441406 C 144.546875 173.609375 161.3125 174.707031 178.019531 173.714844 C 202.726562 172.367188 227.0625 167.949219 250.472656 158.460938 C 268.074219 151.316406 283.910156 140.40625 296.207031 123.523438 C 303.328125 113.75 307.398438 102.542969 306.082031 89.414062 C 305.042969 79.078125 301.257812 70 296.027344 61.699219 C 288.390625 49.535156 278.230469 40.925781 266.941406 34.03125 C 258.238281 28.65625 248.824219 24.539062 238.96875 21.804688 C 237.417969 21.414062 235.773438 21.6875 234.425781 22.554688 C 220.503906 32.671875 212.289062 47.675781 207.894531 65.859375 C 207.683594 66.992188 207.601562 68.148438 207.65625 69.300781 C 207.523438 99.484375 207.398438 129.679688 207.28125 159.886719 C 207.28125 163.609375 207.28125 163.628906 204.058594 163.636719 C 196.609375 163.636719 189.15625 163.636719 181.699219 163.636719 C 180.742188 163.636719 179.777344 163.523438 178.5 163.441406 L 178.5 159.542969 C 178.5 130.96875 178.652344 102.398438 178.429688 73.828125 C 178.328125 61.242188 181.339844 49.832031 186.425781 39.039062 C 193.617188 23.785156 203.671875 11.410156 215.597656 1.113281 C 216.585938 0.277344 217.878906 -0.0976562 219.15625 0.0742188 C 248.058594 6.058594 275.953125 15.820312 302.066406 31.722656 C 315.164062 39.714844 325.796875 51.148438 333.386719 66.070312 C 343.253906 85.460938 341.785156 104.367188 330.964844 122.65625 C 325.070312 132.597656 316.96875 139.386719 308.242188 145.488281 C 281.4375 164.160156 252.652344 176.410156 221.917969 182.503906 C 204.703125 185.953125 187.152344 187.417969 169.605469 186.871094 C 138.265625 185.855469 107.273438 181.953125 77.054688 171.585938 C 55.515625 164.203125 35.613281 153.214844 18.859375 135.332031 C 10.507812 126.398438 3.628906 116.242188 1.066406 103 C -2.039062 86.820312 1.828125 72.492188 10.308594 59.632812 C 18.933594 46.554688 30.238281 37.304688 42.523438 29.617188 C 66.070312 14.855469 91.347656 6.277344 117.644531 1.570312 C 118.527344 1.429688 119.429688 1.648438 120.144531 2.183594 C 132.335938 12.375 142.941406 24.328125 150.066406 40.003906 C 154.429688 49.390625 156.667969 59.625 156.625 69.976562 C 156.441406 100.273438 156.566406 130.570312 156.566406 160.867188 Z M 156.566406 164.585938 "/>
</g>
</svg>
