<?xml version="1.0" encoding="UTF-8"?>
<svg id="Layer_2" data-name="Layer 2" xmlns="http://www.w3.org/2000/svg" viewBox="0 0 17.75 24">
  <g id="Layer_1-2" data-name="Layer 1">
    <path d="M17.53,22.54l-3.85-4.34c1.08-.47,1.97-1.17,2.6-2.25.62-1.05.56-4.05.57-6.46,0,0,.26-1.33-.97-5.17C14.94,1.38,13.83.02,8.87,0,3.92.02,2.81,1.38,1.87,4.33c-1.23,3.84-.97,5.17-.97,5.17.02,2.41-.05,5.41.57,6.46.64,1.08,1.53,1.79,2.6,2.25L.22,22.54c-.32.36-.29.91.07,1.24.17.15.37.22.58.22.24,0,.48-.1.65-.29l1.85-2.08h10.99l1.85,2.08c.17.19.41.29.65.29.21,0,.41-.07.58-.22.36-.32.39-.87.07-1.24ZM15.37,12c0,.55-.45,1-1,1s-1-.45-1-1,.45-1,1-1,1,.45,1,1ZM6.37,1.25c0-.14.11-.25.25-.25h4.5c.14,0,.25.11.25.25v.5c0,.14-.11.25-.25.25h-4.5c-.14,0-.25-.11-.25-.25v-.5ZM3.38,3.83c.04-.48.48-.83.99-.83h9c.51,0,.96.36.99.83.12,1.57-.3,3.76-.99,4.98-.24.42-.72.49-2,.8-1.68.42-1.86.39-2.5.39,0,0,0,0,0,0s0,0,0,0c-.63,0-.82.03-2.5-.39-1.27-.32-1.76-.38-2-.8-.69-1.22-1.12-3.41-.99-4.98ZM2.37,12c0-.55.45-1,1-1s1,.45,1,1-.45,1-1,1-1-.45-1-1ZM8.87,20.37h-4.38l1.44-1.62c.9.16,1.88.24,2.94.24,1.06,0,2.04-.08,2.94-.24l1.44,1.62h-4.38Z"/>
  </g>
</svg>