<?xml version="1.0" encoding="UTF-8"?>
<svg id="Layer_2" data-name="Layer 2" xmlns="http://www.w3.org/2000/svg" viewBox="0 0 20 24">
  <g id="Layer_1-2" data-name="Layer 1">
    <g>
      <path d="M10,0C4.5,0,0,4.5,0,10v12h1.5v-11.86C1.5,5.39,5.33,1.5,10,1.5s8.5,3.89,8.5,8.64v11.86h1.5v-12C20,4.5,15.5,0,10,0Z"/>
      <path d="M17.49,22.99l-3.31-4.24c1.06-.46,1.81-1.52,1.81-2.75V7c0-1.65-1.35-3-3.01-3h-6.02c-1.65,0-3.01,1.35-3.01,3v9c0,1.23.75,2.28,1.81,2.75l-3.31,4.24c-.21.27-.16.67.11.88.11.09.25.13.38.13.19,0,.37-.08.49-.24l1.76-2.26h9.52l1.76,2.26c.12.16.31.24.49.24.13,0,.27-.04.38-.13.27-.21.32-.6.11-.88ZM13.86,17.25c-.62,0-1.13-.5-1.13-1.12s.5-1.12,1.13-1.12,1.13.5,1.13,1.12-.5,1.12-1.13,1.12ZM7.97,5.25c0-.14.11-.25.25-.25h3.51c.14,0,.25.11.25.25v.5c0,.14-.11.25-.25.25h-3.51c-.14,0-.25-.11-.25-.25v-.5ZM4.96,8c0-.55.45-1,1-1h8.02c.55,0,1,.45,1,1v3c0,.55-.45,1-1,1H5.96c-.55,0-1-.45-1-1v-3ZM4.96,16.12c0-.62.5-1.12,1.13-1.12s1.13.5,1.13,1.12-.5,1.12-1.13,1.12-1.13-.5-1.13-1.12ZM5.99,20.5l1.17-1.5h5.63l1.17,1.5h-7.96Z"/>
    </g>
  </g>
</svg>