<?xml version="1.0" encoding="UTF-8"?>
<svg id="Layer_2" data-name="Layer 2" xmlns="http://www.w3.org/2000/svg" viewBox="0 0 16 24">
  <g id="Layer_1-2" data-name="Layer 1">
    <g>
      <rect x="6" y="17.5" width="4" height="6.5"/>
      <path d="M14,.83c-.81-.26-2.86-.61-2.86-.61-1.4-.2-2.48-.22-3.14-.22s-1.75.02-3.14.22c0,0-2.05.35-2.86.61C.59,1.28,0,1.73,0,2.83v11.83c.48,2.39,3.05,5.5,3.5,5.5h1.5v-3.67h6v3.67h1.5c.45,0,3.02-3.11,3.5-5.5V2.83c0-1.1-.59-1.55-2-2ZM2.88,14c-.83,0-1.5-.67-1.5-1.5s.67-1.5,1.5-1.5,1.5.67,1.5,1.5-.67,1.5-1.5,1.5ZM13.12,14c-.83,0-1.5-.67-1.5-1.5s.67-1.5,1.5-1.5,1.5.67,1.5,1.5-.67,1.5-1.5,1.5ZM14.62,8.25c0,.41-.34.75-.75.75H2.12c-.41,0-.75-.34-.75-.75V3.75c0-.41.34-.75.75-.75h11.75c.41,0,.75.34.75.75v4.5Z"/>
    </g>
  </g>
</svg>