<svg id="74cb6672-4298-459d-9b32-d4b002940df8" data-name="圖層 1" xmlns="http://www.w3.org/2000/svg" viewBox="0 0 156.34 133.11" width="342.712316164" height="291.789921994"><title>PRDIR_logo</title><path d="M74.41.1l-.8.1V2.1a152,152,0,0,1-3.1,27.1c-.8,3.3-1.4,6-1.8,7.1-.2.7-.7,2.2-1,3.3s-.8,2.5-.9,3c-1.1,3.2-1.3,3.8-1.5,3.9a.76.76,0,0,0-.2.4c0,1.1-5,11.7-8.1,17.4a139.49,139.49,0,0,1-31.3,37c-1,.8-2.6,2.1-3.3,2.7-.9.8-.1.6,2.6-.5A112.68,112.68,0,0,1,49.81,97c5.5-.9,6.6-1,7.4-1s1.1-.2,2.4-1.8a11.78,11.78,0,0,1,1.1-1.3c1.6-1.5,8.6-11.7,11.9-17.5,1.7-2.9,5.6-10.8,6.7-13.4.5-1.1,1.1-2.5,1.3-3.1.9-2,2.9-7.4,4.1-10.9,1-3.2,1.3-4.1,1.8-5.9a158.68,158.68,0,0,0,4-18.4,124.84,124.84,0,0,0,1.8-15.9c.3-5,.3-7.8-.1-7.8-1.5.1-17.2.1-17.8.1Z" style="fill:#009543"/><path d="M90.21,36.1c-.7,2.3-2,6.2-2.8,9.2-.4,1.2-1,3.4-1.5,4.8s-1,3.2-1.2,3.9-.7,2.2-1,3.3l-.6,1.9.4,1.1a125.65,125.65,0,0,0,6.1,13.2,6.4,6.4,0,0,1,.6,1.1c.8,1.7,5.9,9.8,8.7,13.7,5.7,8.1,15.2,18,24,25.2,4.8,3.9,14.4,10.8,15.9,11.4.2.1,1,.6,1.8,1.1,2.4,1.5,8.6,4.6,8.9,4.5a23.36,23.36,0,0,0,2.1-3.9c1-2.1,2.1-4.4,2.5-5.3a9.47,9.47,0,0,0,.7-1.8,24.5,24.5,0,0,1,1.4-3.4c.3-.5.1-.8-.7-1.3-.2-.1-.7-.4-1-.6s-2.2-1.4-4.2-2.7c-4.3-2.7-11.5-7.7-14.3-9.8-1-.8-2.4-1.9-3-2.3s-1.5-1.2-1.9-1.5-1.5-1.3-2.3-2c-11.9-10-22.2-24.9-30.5-43.9-.7-1.6-1.4-3.2-1.6-3.6-.9-2.2-2.1-4.9-3.7-9-1.2-3.2-2.1-5.1-2.3-5.1a8.09,8.09,0,0,1-.5,1.8" style="fill:#009543"/><path d="M74.31,96.5c-5.5.3-12.3,1-15.6,1.5-2.9.5-9.7,1.8-11.9,2.2-.4.1-1.5.3-2.4.5s-2.6.6-3.8.9-2.8.8-3.7,1a28,28,0,0,0-3.1.9c-.9.3-1.9.6-2.3.7-1.3.4-9.2,3.1-9.7,3.3-.2.1-1.8.7-3.3,1.3s-3.1,1.2-3.3,1.3-.8.3-1.2.5c-.9.4-2.1.9-5.8,2.6-2.3,1.1-8,3.9-8.2,4.1a4.37,4.37,0,0,0,.8,1.7,41.57,41.57,0,0,1,2.9,4.3c.4.6,1.2,2,1.9,3s1.3,2,1.4,2.2a45.24,45.24,0,0,0,3.1,4.6,14.55,14.55,0,0,0,3.5-1.5c15.9-8,29.7-12.2,47.9-14.9A163.84,163.84,0,0,1,83,115.4c5.8.3,11.3.6,13.2.8,4.9.6,6.1.7,9.5,1.3l4.6.7c.6.1,1.7.3,2.5.4s1.8.3,2.3.4,1.6.3,2.5.5c2.8.6,5.7,1.3,8.4,2,3.8,1,3.9.9,1.3-1.4-.9-.8-2.5-2.2-3.6-3.1-3.2-2.7-9.4-8.7-14.9-14.2-4.2-4.2-5.3-5.2-5.9-5.3a197.79,197.79,0,0,0-28.6-1" style="fill:#009543"/></svg>