<?xml version="1.0" encoding="UTF-8"?>
<svg id="Layer_2" data-name="Layer 2" xmlns="http://www.w3.org/2000/svg" viewBox="0 0 17.75 24">
  <g id="Layer_1-2" data-name="Layer 1">
    <path d="M17.53,22.54l-3.19-3.59c1.43-.23,2.54-1.46,2.54-2.95V3c0-1.65-1.35-3-3-3H3.87C2.23,0,.87,1.35.87,3v13c0,1.49,1.11,2.73,2.54,2.95L.22,22.54c-.32.36-.29.91.07,1.24.17.15.37.22.58.22.24,0,.48-.1.65-.29l1.85-2.08h10.99l1.85,2.08c.17.19.41.29.65.29.21,0,.41-.07.58-.22.36-.32.39-.87.07-1.24ZM13.37,17c-.83,0-1.5-.67-1.5-1.5s.67-1.5,1.5-1.5,1.5.67,1.5,1.5-.67,1.5-1.5,1.5ZM6.37,1.25c0-.14.11-.25.25-.25h4.5c.14,0,.25.11.25.25v1c0,.14-.11.25-.25.25h-4.5c-.14,0-.25-.11-.25-.25v-1ZM2.87,4.5c0-.55.45-1,1-1h10c.55,0,1,.45,1,1v4c0,.55-.45,1-1,1H3.87c-.55,0-1-.45-1-1v-4ZM2.87,15.5c0-.83.67-1.5,1.5-1.5s1.5.67,1.5,1.5-.67,1.5-1.5,1.5-1.5-.67-1.5-1.5ZM8.87,20.38h-4.38l1.22-1.38h6.32l1.22,1.38h-4.38Z"/>
  </g>
</svg>