<?xml version="1.0" encoding="UTF-8"?>
<svg id="Layer_2" data-name="Layer 2" xmlns="http://www.w3.org/2000/svg" viewBox="0 0 17.75 24">
  <g id="Layer_1-2" data-name="Layer 1">
    <path d="M17.53,22.54l-3.15-3.54h0c1.1,0,2-.9,2-2V7c0-2.2-1.8-4-4-4h-2.62v-1.5h3.12c.14,0,.25.11.25.25,0,.41.34.75.75.75s.75-.34.75-.75c0-.96-.79-1.75-1.75-1.75H4.87c-.96,0-1.75.79-1.75,1.75,0,.41.34.75.75.75s.75-.34.75-.75c0-.14.11-.25.25-.25h3.12v1.5h-2.62c-2.2,0-4,1.8-4,4v10c0,1.1.9,2,2,2h0L.22,22.54c-.32.36-.29.91.07,1.24.17.15.37.22.58.22.24,0,.48-.1.65-.29l1.85-2.08h10.99l1.85,2.08c.17.19.41.29.65.29.21,0,.41-.07.58-.22.36-.32.39-.87.07-1.24ZM13.37,17c-.83,0-1.5-.67-1.5-1.5s.67-1.5,1.5-1.5,1.5.67,1.5,1.5-.67,1.5-1.5,1.5ZM2.87,7.5c0-1.65,1.35-3,3-3h6c1.65,0,3,1.35,3,3v2.5c0,.28-.22.5-.5.5H3.37c-.27,0-.5-.22-.5-.5v-2.5ZM2.87,15.5c0-.83.67-1.5,1.5-1.5s1.5.67,1.5,1.5-.67,1.5-1.5,1.5-1.5-.67-1.5-1.5ZM8.87,20.38h-4.38l1.22-1.38h6.32l1.22,1.38h-4.38Z"/>
  </g>
</svg>