<?xml version="1.0" encoding="UTF-8"?>
<svg id="Layer_2" data-name="Layer 2" xmlns="http://www.w3.org/2000/svg" viewBox="0 0 24 18">
  <g id="Layer_1-2" data-name="Layer 1">
    <g>
      <line x1="2" y1="17" x2="12" y2="17" style="fill: none; stroke: #000; stroke-miterlimit: 10; stroke-width: 2px;"/>
      <line x1="14" y1="17" x2="22" y2="17" style="fill: none; stroke: #000; stroke-miterlimit: 10; stroke-width: 2px;"/>
      <path d="M0,5h13.95c2.79,0,5.05,2.26,5.05,5.05v.96c0,1.1-.89,2-2,2H0" style="fill: none; stroke: #000; stroke-miterlimit: 10; stroke-width: 2px;"/>
      <path d="M18.08,7.5c-1.52.03-3.04-.03-4.56,0,.19.19.46.49.66.92.36.76.22,1.26.61,1.67.17.18.47.38,1.06.41h3.15" style="fill: none; stroke: #000; stroke-linecap: round; stroke-linejoin: round;"/>
      <rect x="1.5" y="7.5" width="10" height="3" rx="1" ry="1" style="fill: none; stroke: #000; stroke-linecap: round; stroke-linejoin: round;"/>
      <line x1="8" y1="8" x2="8" y2="10" style="fill: none; stroke: #000; stroke-linecap: round; stroke-linejoin: round;"/>
      <line x1="5" y1="8" x2="5" y2="10" style="fill: none; stroke: #000; stroke-linecap: round; stroke-linejoin: round;"/>
      <line y1="1" x2="24" y2="1" style="fill: none; stroke: #000; stroke-miterlimit: 10; stroke-width: 2px;"/>
    </g>
  </g>
</svg>